<?xml version="1.0" encoding="UTF-8"?>
<svg version="1.1" xmlns="http://www.w3.org/2000/svg" width="1200" height="1200">
<path d="M0 0 C396 0 792 0 1200 0 C1200 396 1200 792 1200 1200 C804 1200 408 1200 0 1200 C0 804 0 408 0 0 Z " fill="#656464" transform="translate(0,0)"/>
<path d="M0 0 C0.66 0 1.32 0 2 0 C7.16682852 9.53969995 12.0912134 19.14677436 16.69091797 28.97314453 C19.6716835 35.33565798 22.77206252 41.62870426 25.93530273 47.90209961 C27.80841637 51.61768581 29.67436302 55.33682285 31.53515625 59.05859375 C32.03971848 60.06752182 32.03971848 60.06752182 32.55447388 61.09683228 C35.07214103 66.13477745 37.58000947 71.17754625 40.08503723 76.2217865 C42.01879633 80.11431082 43.95574817 84.00524216 45.89306641 87.89599609 C46.89314871 89.90637572 47.89181392 91.91746083 48.88916016 93.92919922 C50.34686773 96.86872825 51.80962978 99.80569245 53.2734375 102.7421875 C53.71924164 103.64411835 54.16504578 104.54604919 54.62435913 105.47531128 C55.03884308 106.30443024 55.45332703 107.13354919 55.88037109 107.98779297 C56.24262787 108.71674774 56.60488464 109.44570251 56.9781189 110.19674683 C57.98814827 112.16586216 57.98814827 112.16586216 60 114 C66.81986238 114.01769095 71.32612094 110.61854902 76.8125 106.875 C77.65103516 106.318125 78.48957031 105.76125 79.35351562 105.1875 C83.45224073 102.4529163 87.50036712 99.65298489 91.5234375 96.80859375 C98.39663107 91.98005576 105.41767901 87.37289875 112.43334961 82.75512695 C114.82754234 81.17758857 117.21746305 79.5937087 119.60742188 78.00976562 C121.14036639 76.99960745 122.67356061 75.98982807 124.20703125 74.98046875 C125.26963921 74.27424629 125.26963921 74.27424629 126.35371399 73.55375671 C129.80979018 71.28927464 133.06107836 69.34768926 137 68 C135.81595968 76.23807236 134.00085744 84.04815918 131.5625 92 C129.15397479 99.95590264 126.9581736 107.92108051 125 116 C124.57369291 117.73196208 124.14664573 119.46374222 123.71875 121.1953125 C123.51822021 122.00790527 123.31769043 122.82049805 123.11108398 123.65771484 C121.45455989 130.34602189 119.79672451 137.01319478 117.74609375 143.59375 C115.14900339 151.96970635 112.86503388 160.42116588 110.78125 168.9375 C109.92022248 172.31272787 108.96855295 175.65408981 108 179 C106.77491822 183.23462231 105.60936276 187.4679173 104.5625 191.75 C102.53148411 199.87406355 100.24127461 207.93141139 98 216 C33.98 216 -30.04 216 -96 216 C-97.86626725 212.26746551 -98.78718991 209.22032297 -99.75 205.1875 C-100.09905109 203.74970587 -100.44938984 202.31222395 -100.80078125 200.875 C-100.9910791 200.09511719 -101.18137695 199.31523437 -101.37744141 198.51171875 C-102.52228589 193.89283246 -103.73205558 189.29087231 -104.9375 184.6875 C-105.19354004 183.70797363 -105.44958008 182.72844727 -105.71337891 181.71923828 C-106.92195759 177.100442 -108.13544137 172.48297274 -109.35546875 167.8671875 C-109.77869525 166.26563806 -110.20187371 164.66407592 -110.625 163.0625 C-110.82770508 162.29542725 -111.03041016 161.52835449 -111.23925781 160.73803711 C-112.92243431 154.34538753 -114.52748831 147.93498373 -116.10546875 141.515625 C-117.51154739 135.98955175 -119.13284769 130.55302828 -120.875 125.125 C-122.73305616 119.14330249 -124.18145449 113.12227557 -125.56982422 107.02026367 C-126.56057667 102.71677402 -127.73395891 98.5925167 -129.2109375 94.4375 C-130.33148555 90.97600502 -131.23168869 87.46277409 -132.125 83.9375 C-132.29580078 83.27613037 -132.46660156 82.61476074 -132.64257812 81.93334961 C-133.79524671 77.30488007 -134.48192361 72.74198493 -135 68 C-131.23004847 69.37150718 -128.11135254 71.10264277 -124.7890625 73.34375 C-123.79898193 74.00810059 -122.80890137 74.67245117 -121.78881836 75.35693359 C-120.7447583 76.06414551 -119.70069824 76.77135742 -118.625 77.5 C-117.00960327 78.58595459 -117.00960327 78.58595459 -115.36157227 79.69384766 C-113.21302619 81.13824026 -111.06562084 82.58433135 -108.91943359 84.03222656 C-105.26783034 86.49350121 -101.60431858 88.93648275 -97.9375 91.375 C-96.77333816 92.15089264 -95.60927401 92.92693186 -94.4453125 93.703125 C-93.88360352 94.07759766 -93.32189453 94.45207031 -92.74316406 94.83789062 C-87.1796875 98.546875 -87.1796875 98.546875 -85.24023438 99.84082031 C-83.97190706 100.68572934 -82.7024055 101.52887876 -81.43164062 102.37011719 C-78.45756214 104.34182107 -75.50819157 106.3361464 -72.6015625 108.40625 C-71.55742188 109.1384375 -70.51328125 109.870625 -69.4375 110.625 C-68.52871094 111.27726562 -67.61992188 111.92953125 -66.68359375 112.6015625 C-63.53932865 114.24005872 -61.49426563 114.10783097 -58 114 C-51.23869119 101.29401255 -44.68372086 88.49753134 -38.26905632 75.61327744 C-36.73673986 72.535635 -35.20175459 69.45933579 -33.66615295 66.3833313 C-30.42097595 59.88169647 -27.1790176 53.37845989 -23.9375 46.875 C-20.14634477 39.26905391 -16.35385875 31.66377706 -12.55804634 24.06015396 C-11.0446258 21.02682568 -9.53361209 17.99230644 -8.02268982 14.95773315 C-7.10500566 13.1187365 -6.18721102 11.27979497 -5.26928711 9.44091797 C-4.84910812 8.59539368 -4.42892914 7.74986938 -3.99601746 6.87872314 C-3.61362915 6.11387604 -3.23124084 5.34902893 -2.83726501 4.56100464 C-2.33823874 3.55962117 -2.33823874 3.55962117 -1.82913113 2.53800774 C-1 1 -1 1 0 0 Z " fill="#FDD600" transform="translate(599,115)"/>
<path d="M0 0 C30.83964748 10.16125961 60.73568207 34.05773941 86.17919922 53.71801758 C86.77635742 54.1762793 87.37351562 54.63454102 87.98876953 55.10668945 C100.24086768 64.52110819 111.94553989 74.5242332 123.27294922 85.03051758 C125.15687869 86.77264591 127.05211302 88.5026592 128.96044922 90.21801758 C135.3127144 95.94203675 141.43504806 101.8692073 147.49169922 107.90551758 C148.24467285 108.65389893 148.99764648 109.40228027 149.7734375 110.17333984 C154.44685131 114.85968078 158.87941788 119.68817124 163.17919922 124.71801758 C164.12929843 125.81213384 165.07979876 126.90590196 166.03076172 127.99926758 C177.92974257 141.77636473 189.29714842 155.81345145 199.75341797 170.72631836 C200.70673632 172.05802574 201.68913754 173.36936875 202.69873047 174.65893555 C206.22627455 179.22749384 206.22627455 179.22749384 205.98852539 181.70483398 C205.06368912 184.00534678 203.99141284 185.34913866 202.29248047 187.15161133 C201.69129395 187.79380615 201.09010742 188.43600098 200.47070312 189.09765625 C199.81763184 189.77675049 199.16456055 190.45584473 198.49169922 191.15551758 C197.8154248 191.86490479 197.13915039 192.57429199 196.44238281 193.30517578 C183.37404657 206.89277358 169.25899337 219.73993103 153.17919922 229.71801758 C152.51919922 229.71801758 151.85919922 229.71801758 151.17919922 229.71801758 C149.92728999 227.97074858 148.75385089 226.1670548 147.61669922 224.34301758 C136.02252513 206.60706478 120.76754304 196.6200042 100.17919922 191.71801758 C90.54140036 189.89101053 80.75034979 188.89990882 71.01513672 187.74926758 C70.29926392 187.66414917 69.58339111 187.57903076 68.8458252 187.49133301 C65.28704653 187.06847829 61.72781894 186.65217891 58.16650391 186.2512207 C45.07410075 184.74725519 32.26140614 182.47555696 19.74169922 178.28051758 C18.73526367 177.94342773 17.72882813 177.60633789 16.69189453 177.2590332 C0.65570484 171.66004108 -15.19622469 163.93143324 -28.82080078 153.71801758 C-29.3414209 153.33436035 -29.86204102 152.95070313 -30.3984375 152.55541992 C-37.0671415 147.63146903 -43.42830596 142.44539861 -49.52783203 136.82348633 C-52.36604041 134.21736313 -55.28902917 131.71833202 -58.22705078 129.22583008 C-60.28565846 127.27822575 -61.70388785 125.59314527 -62.08642578 122.72973633 C-61.79873544 79.93579821 -40.52217569 39.05513951 -11.19580078 9.03051758 C-10.41205078 8.26739258 -9.62830078 7.50426758 -8.82080078 6.71801758 C-8.25490234 6.09540039 -7.68900391 5.4727832 -7.10595703 4.83129883 C-6.19136719 3.84709961 -6.19136719 3.84709961 -5.25830078 2.84301758 C-4.70013672 2.2268457 -4.14197266 1.61067383 -3.56689453 0.97583008 C-1.82080078 -0.28198242 -1.82080078 -0.28198242 0 0 Z " fill="#000000" transform="translate(482.82080078125,344.281982421875)"/>
<path d="M0 0 C0.99 0.33 1.98 0.66 3 1 C3 1.66 3 2.32 3 3 C3.80599357 2.98893848 4.61198713 2.97787697 5.44240475 2.96648026 C25.07312439 2.70122465 44.70348546 2.50277658 64.33561611 2.37825394 C73.82978697 2.31643096 83.32276015 2.23218193 92.81616211 2.09472656 C101.09278186 1.97494638 109.36853421 1.89766208 117.64599663 1.87093806 C122.02758166 1.85531994 126.40668579 1.81874931 130.78747368 1.73123932 C134.91610151 1.64943893 139.04124156 1.62472318 143.1706028 1.64270782 C144.6812071 1.63942106 146.19193451 1.61573756 147.70183563 1.5695343 C159.07965565 1.23861037 159.07965565 1.23861037 163.86166573 5.62479401 C166.23618333 8.55658888 168.13246594 11.72389204 170 15 C170.89307526 16.31931319 171.79447863 17.63317122 172.71484375 18.93359375 C187.42616125 41.71519279 195.64826826 66.73407246 202.90551758 92.69335938 C209.17714106 116.03743084 209.17714106 116.03743084 223.03125 135.2421875 C224.30308242 137.54994795 224.13340596 139.30675683 223.65478516 141.85449219 C222.21409406 146.57514593 219.76579501 150.8562797 217.4375 155.1875 C216.89319336 156.21327148 216.34888672 157.23904297 215.78808594 158.29589844 C211.91292108 165.5122758 207.82877781 172.37539573 203 179 C201.87851562 180.56234375 201.87851562 180.56234375 200.734375 182.15625 C198.83780954 184.78226371 196.92710379 187.39635977 195 190 C191.02221432 186.37515933 188.13877275 182.12658157 185.0625 177.75 C175.5212937 164.3676695 165.0038154 151.83609825 154.23828125 139.42919922 C153.21653804 138.24992384 152.2011532 137.06514265 151.1875 135.87890625 C142.43191591 125.70053975 133.09700288 116.00879818 123.625 106.5 C122.98377197 105.85417969 122.34254395 105.20835937 121.68188477 104.54296875 C117.85256355 100.7259954 113.90438078 97.10109927 109.8125 93.56738281 C107.56754512 91.62602905 105.37795289 89.62748057 103.1875 87.625 C97.93819023 82.89423907 92.50376055 78.43002948 87 74 C85.86686303 73.07461592 84.73406551 72.14881607 83.6015625 71.22265625 C60.33698177 52.28431634 35.23083379 35.54176197 9 21 C8.0929834 20.49645996 7.1859668 19.99291992 6.25146484 19.47412109 C0.51284058 16.29425618 -5.23759182 13.13654708 -11 10 C-11 9.34 -11 8.68 -11 8 C-8.69921875 6.01953125 -8.69921875 6.01953125 -5.6875 3.8125 C-4.70136719 3.07644531 -3.71523438 2.34039062 -2.69921875 1.58203125 C-1.36310547 0.79892578 -1.36310547 0.79892578 0 0 Z " fill="#000000" transform="translate(500,329)"/>
<path d="M0 0 C3.16911929 2.67614518 6.3101156 5.34385362 9.31640625 8.203125 C45.88477054 42.81745456 91.97578946 56.03500735 140.87768555 61.12548828 C154.30286948 62.55805887 168.20103863 64.22529782 180.3125 70.625 C180.96855225 70.96418457 181.62460449 71.30336914 182.30053711 71.65283203 C193.74762288 77.85444509 203.44099919 87.67542843 208 100 C195.48676129 107.5188401 182.49791842 113.46451089 169 119 C168.34322266 119.27328125 167.68644531 119.5465625 167.00976562 119.828125 C134.95157195 132.98770279 93.85445127 137.14859001 60 129 C59.12601562 128.91492188 58.25203125 128.82984375 57.3515625 128.7421875 C50.81770053 128.05089152 47.70949211 124.1966945 43.60546875 119.31640625 C42.73223494 118.21468123 41.86388869 117.10906792 41 116 C40.54834473 115.42491699 40.09668945 114.84983398 39.63134766 114.25732422 C14.48904146 81.90632315 -1.46092738 41.39294241 0 0 Z " fill="#000000" transform="translate(420,479)"/>
<path d="M0 0 C0.66 0 1.32 0 2 0 C3.26171875 1.64208984 3.26171875 1.64208984 4.6875 3.9609375 C5.21609619 4.8154248 5.74469238 5.66991211 6.28930664 6.55029297 C7.13609985 7.94852295 7.13609985 7.94852295 8 9.375 C8.87676392 10.80996826 8.87676392 10.80996826 9.77124023 12.27392578 C19.58866948 28.44901546 28.36373796 45.17082327 37 62 C37.38365723 62.70753418 37.76731445 63.41506836 38.16259766 64.14404297 C39.36940543 66.81872305 38.94555141 68.25704908 38 71 C32.51641348 77.98838468 24.96834277 83.56936415 18 89 C16.73929688 89.98613281 16.73929688 89.98613281 15.453125 90.9921875 C-0.17180847 102.78191003 -17.28074218 111.16864889 -35.75 117.4375 C-36.51304443 117.69692383 -37.27608887 117.95634766 -38.06225586 118.22363281 C-41.57326489 119.37121225 -44.27043891 120 -48 120 C-47.9278125 119.35160156 -47.855625 118.70320312 -47.78125 118.03515625 C-46.13406422 100.62531761 -45.76354074 83.04212021 -50 66 C-50.26296875 64.86949219 -50.5259375 63.73898437 -50.796875 62.57421875 C-51.98129071 57.62505311 -53.35427405 52.81710344 -55 48 C-53.92363281 47.26136719 -52.84726562 46.52273438 -51.73828125 45.76171875 C-42.38321228 39.28579464 -33.51732378 32.54067065 -25 25 C-23.64261719 23.80890625 -23.64261719 23.80890625 -22.2578125 22.59375 C-14.80837345 15.98208981 -7.79680303 9.14962227 -1.4453125 1.46875 C-0.72988281 0.74171875 -0.72988281 0.74171875 0 0 Z " fill="#000000" transform="translate(693,533)"/>
<path d="M0 0 C5.28515439 14.1652869 7.26102236 27.14810873 7.3125 42.1875 C7.31797852 43.35087891 7.32345703 44.51425781 7.32910156 45.71289062 C7.26421187 53.6294325 6.40848659 61.21260906 5 69 C-7.16726324 72.78537079 -18.85425771 73.36987535 -31.5 73.3125 C-32.34859589 73.31034485 -33.19719177 73.3081897 -34.07150269 73.30596924 C-46.26386636 73.25615689 -58.12113704 73.00761003 -70 70 C-70.84224121 69.79068848 -71.68448242 69.58137695 -72.55224609 69.36572266 C-99.92292986 62.39603872 -125.54910829 50.60569147 -147 32 C-147 31.67 -147 31.34 -147 31 C-146.11948975 31.06856201 -145.23897949 31.13712402 -144.33178711 31.20776367 C-134.40536258 31.93118092 -124.51495728 32.28014334 -114.5625 32.3125 C-113.78129791 32.31511841 -113.00009583 32.31773682 -112.19522095 32.32043457 C-98.47350483 32.32532589 -85.40495758 31.07402795 -72 28 C-70.97036133 27.77570312 -70.97036133 27.77570312 -69.91992188 27.546875 C-65.54375474 26.57738566 -61.26730788 25.36160811 -57 24 C-56.17242188 23.73735352 -55.34484375 23.47470703 -54.4921875 23.20410156 C-43.47657727 19.65384257 -32.73576267 15.64409878 -22.1875 10.875 C-21.31150146 10.47974121 -20.43550293 10.08448242 -19.53295898 9.67724609 C-14.12883684 7.16824477 -9.06418278 4.32034363 -4.0246582 1.14111328 C-2 0 -2 0 0 0 Z " fill="#000000" transform="translate(632,586)"/>
<path d="M0 0 C7.11666802 -0.05088279 14.23328876 -0.08581026 21.35009766 -0.10986328 C23.7690608 -0.1198951 26.1880119 -0.13352371 28.60693359 -0.15087891 C32.09215273 -0.17525107 35.57721093 -0.18651158 39.0625 -0.1953125 C40.13677246 -0.20563507 41.21104492 -0.21595764 42.31787109 -0.22659302 C52.06683624 -0.2280362 59.82506771 0.92031017 67 8 C71.47535481 13.4056252 71.67034629 19.53636611 71.4375 26.33984375 C70.12993476 37.27902791 65.29332973 45.81060767 57 53 C53.45137636 55.36779914 50.36174447 57 46 57 C46.44214844 57.62777344 46.88429688 58.25554688 47.33984375 58.90234375 C49.52712799 62.98355881 50.49710615 67.07671921 51.5625 71.5625 C51.77865967 72.4484082 51.99481934 73.33431641 52.2175293 74.24707031 C53.78858023 80.80377278 55.03384383 87.32473917 56 94 C49.07 94 42.14 94 35 94 C34.40251953 91.25429688 34.40251953 91.25429688 33.79296875 88.453125 C33.25833586 86.05196674 32.72315083 83.65093138 32.1875 81.25 C31.92646484 80.0434375 31.66542969 78.836875 31.39648438 77.59375 C31.13544922 76.43359375 30.87441406 75.2734375 30.60546875 74.078125 C30.36981201 73.00981445 30.13415527 71.94150391 29.89135742 70.84082031 C28.96986149 67.90394639 28.19613966 66.15302837 26 64 C23.79445523 63.3625747 23.79445523 63.3625747 21.33203125 63.390625 C20.43935547 63.35839844 19.54667969 63.32617188 18.62695312 63.29296875 C17.69818359 63.27878906 16.76941406 63.26460937 15.8125 63.25 C14.87212891 63.22035156 13.93175781 63.19070313 12.96289062 63.16015625 C10.64184084 63.08946438 8.32179465 63.03676835 6 63 C5.88785156 64.24652344 5.77570313 65.49304688 5.66015625 66.77734375 C5.0266911 72.47853013 3.75498678 77.98624645 2.4375 83.5625 C2.20353516 84.57119141 1.96957031 85.57988281 1.72851562 86.61914062 C1.15692156 89.08049466 0.57910593 91.54040251 0 94 C-6.6 94 -13.2 94 -20 94 C-15.26215626 68.85298321 -10.26563279 43.78310777 -4.62988281 18.82080078 C-3.55197647 13.99361867 -2.54086464 9.15292469 -1.54296875 4.30859375 C-1 2 -1 2 0 0 Z " fill="#FCD501" transform="translate(171,692)"/>
<path d="M0 0 C1.26419965 0.68266781 2.51563997 1.38975077 3.75 2.125 C5.07959344 2.79909458 6.41196391 3.46782298 7.75 4.125 C8.41 2.475 9.07 0.825 9.75 -0.875 C15.36 -0.875 20.97 -0.875 26.75 -0.875 C26.16872809 7.3311917 24.8567754 15.1030322 23.0625 23.125 C22.66538818 24.93085571 22.66538818 24.93085571 22.26025391 26.77319336 C21.7059191 29.29061992 21.14892188 31.8074616 20.58935547 34.32373047 C19.76262154 38.06783962 18.95843412 41.8161375 18.16015625 45.56640625 C17.64877197 47.94017625 17.13706514 50.31387678 16.625 52.6875 C16.28142456 54.31655273 16.28142456 54.31655273 15.9309082 55.97851562 C12.9210423 69.7464382 8.99672082 80.4979816 -2.875 89 C-16.79685617 96.61097584 -35.92747202 97.54357883 -51.25 94.125 C-50.82910004 88.52038469 -50.33386889 83.40413453 -48.25 78.125 C-47.31027344 78.36283203 -47.31027344 78.36283203 -46.3515625 78.60546875 C-35.49873564 80.42338559 -21.92604217 80.91553596 -12.25 75.125 C-8.76105843 71.89134684 -7.51863244 68.67093293 -6.25 64.125 C-7.24580078 64.54072266 -7.24580078 64.54072266 -8.26171875 64.96484375 C-9.58623047 65.50818359 -9.58623047 65.50818359 -10.9375 66.0625 C-12.24267578 66.60197266 -12.24267578 66.60197266 -13.57421875 67.15234375 C-22.8264391 70.51555962 -34.07148065 70.69866962 -43.05859375 66.5234375 C-47.86456826 63.45652329 -51.06852302 59.38521684 -53.6875 54.375 C-56.1708368 40.02683182 -52.59785818 25.05051168 -44.25 13.125 C-34.17535604 0.53169505 -15.593976 -7.01468151 0 0 Z " fill="#FCD501" transform="translate(428.25,716.875)"/>
<path d="M0 0 C3.84915788 1.35370028 6.62108722 3.10202486 9.8125 5.625 C20.53047849 13.54136213 32.21221409 18.46629564 44.96484375 22.08984375 C48 23 48 23 49 24 C48.01662882 59.52371738 29.54129694 92.24739669 9 120 C6.75581037 117.16254237 5.04178277 114.32337103 3.42578125 111.08984375 C2.93102295 110.11297607 2.43626465 109.1361084 1.92651367 108.12963867 C1.39388916 107.07623291 0.86126465 106.02282715 0.3125 104.9375 C-4.60896534 95.3395483 -9.80329028 85.95923261 -15.3125 76.6875 C-15.95727295 75.59880615 -16.6020459 74.5101123 -17.26635742 73.38842773 C-21.62797683 66.10344699 -26.23106655 59.02239416 -31 52 C-29.67144921 49.20135697 -28.18148367 46.71150853 -26.3828125 44.19140625 C-16.45318684 30.09013535 -7.59510811 15.49402055 0 0 Z " fill="#000000" transform="translate(730,475)"/>
<path d="M0 0 C0.495 0.495 0.495 0.495 1 1 C1.33 -0.32 1.66 -1.64 2 -3 C8.6 -3 15.2 -3 22 -3 C21.36569729 2.70872442 20.72214306 7.79711862 19.4765625 13.31640625 C19.32972015 13.97599838 19.18287781 14.63559052 19.03158569 15.31517029 C18.5672177 17.39865106 18.09665411 19.48065768 17.625 21.5625 C17.00952794 24.2921965 16.39738133 27.02260659 15.7890625 29.75390625 C15.63856949 30.42938507 15.48807648 31.10486389 15.33302307 31.80081177 C13.97793217 37.95735433 12.81609951 44.14273885 11.69360352 50.34545898 C10.63193946 55.93928134 9.3214868 61.46234102 8 67 C2.39 67 -3.22 67 -9 67 C-9.33 65.02 -9.66 63.04 -10 61 C-10.8353125 61.50660156 -10.8353125 61.50660156 -11.6875 62.0234375 C-21.62506778 67.83154299 -30.51475377 69.01158989 -42 68 C-47.3052753 66.5605267 -52.15519193 63.95789066 -56 60 C-58.78239436 54.63830576 -59.51905812 50.31440737 -59.4375 44.3125 C-59.42505249 43.12503174 -59.42505249 43.12503174 -59.41235352 41.91357422 C-59.04265462 28.97016576 -53.49894575 16.48861401 -44.5625 7.0625 C-32.85739174 -3.65197549 -14.13876199 -9.52202338 0 0 Z " fill="#FBD501" transform="translate(749,719)"/>
<path d="M0 0 C15.04374245 2.59972508 31.42393134 23.01106875 41 34 C41.928125 34.88042969 42.85625 35.76085937 43.8125 36.66796875 C47.0129546 41.54294692 46.62473252 45.73367306 46.4375 51.4375 C46.40595825 53.0932605 46.40595825 53.0932605 46.3737793 54.7824707 C46.28935887 58.19115848 46.15590707 61.5938774 46 65 C45.95456055 66.00998047 45.90912109 67.01996094 45.86230469 68.06054688 C44.73904883 89.75750199 39.62941323 109.72818732 32 130 C24.09122758 126.41177955 20.82052625 116.14919493 17.875 108.375 C15.59368961 102.14001237 13.75769022 95.81466143 12.02587891 89.40893555 C3.95282007 59.57003052 -6.17572802 31.54021082 -24.3828125 6.30859375 C-26 4 -26 4 -26 3 C-13.625 2.505 -13.625 2.505 -1 2 C-0.67 1.34 -0.34 0.68 0 0 Z " fill="#000000" transform="translate(697,329)"/>
<path d="M0 0 C6.6 0 13.2 0 20 0 C19.37002321 4.40983751 18.71241362 8.69365357 17.84375 13.046875 C17.51697266 14.68462891 17.51697266 14.68462891 17.18359375 16.35546875 C16.95800781 17.47566406 16.73242188 18.59585938 16.5 19.75 C16.27441406 20.88566406 16.04882812 22.02132812 15.81640625 23.19140625 C15.59855469 24.27808594 15.38070312 25.36476563 15.15625 26.484375 C14.95837891 27.47147461 14.76050781 28.45857422 14.55664062 29.47558594 C14 32 14 32 13 35 C13.6290625 34.66226563 14.258125 34.32453125 14.90625 33.9765625 C25.79412185 28.30306301 36.76696327 25.673609 49 29.125 C53.94810399 31.02601789 56.63579726 34.27159453 59 39 C60.10016398 51.63616913 57.70974456 62.91292393 54.68017578 75.12011719 C52.81618639 83.01229912 51.47401274 91.02941261 50 99 C43.4 99 36.8 99 30 99 C30.64444136 93.20002776 31.30199717 88.15596826 32.62890625 82.578125 C32.945193 81.20845597 33.26093086 79.83866009 33.57617188 78.46875 C34.06606609 76.36369384 34.56012345 74.25990866 35.06420898 72.15820312 C37.24406808 63.02273854 38.50278308 54.45435338 38 45 C29.21221479 42.70149454 20.83802549 43.21540272 12.73730469 47.47387695 C6.79739215 52.95552831 6.54461723 61.66420226 5.375 69.3125 C5.06607364 71.08874551 4.75231018 72.86415688 4.43359375 74.63867188 C3.84909442 77.91947477 3.29563302 81.20254543 2.77099609 84.4934082 C0.65313845 97.34686155 0.65313845 97.34686155 -1 99 C-2.41570123 99.08651611 -3.835595 99.10704904 -5.25390625 99.09765625 C-6.10791016 99.09443359 -6.96191406 99.09121094 -7.84179688 99.08789062 C-8.73962891 99.07951172 -9.63746094 99.07113281 -10.5625 99.0625 C-11.46419922 99.05798828 -12.36589844 99.05347656 -13.29492188 99.04882812 C-15.53001314 99.03700225 -17.76497437 99.0205222 -20 99 C-19.49310094 90.86933903 -18.1003954 83.17408016 -16.25 75.25 C-15.70659376 72.86338082 -15.16363271 70.47666024 -14.62109375 68.08984375 C-14.34894043 66.90245605 -14.07678711 65.71506836 -13.79638672 64.49169922 C-12.60579879 59.27165366 -11.4525889 54.0437812 -10.3125 48.8125 C-10.1052832 47.86286377 -9.89806641 46.91322754 -9.68457031 45.93481445 C-8.2673655 39.38110354 -7.02184938 32.8121963 -5.82421875 26.21484375 C-4.15962543 17.42187431 -2.02654392 8.71493985 0 0 Z " fill="#FCD501" transform="translate(621,687)"/>
<path d="M0 0 C4.77772784 3.33329849 8.87071327 7.94830559 11.015625 13.40625 C12.05171578 22.85216856 10.02165701 31.04476727 8.015625 40.40625 C-8.814375 40.40625 -25.644375 40.40625 -42.984375 40.40625 C-40.93776339 48.71089383 -40.93776339 48.71089383 -38.046875 51.40625 C-33.12064433 53.79472548 -28.22326129 53.59738231 -22.859375 53.59375 C-22.00786865 53.59511963 -21.1563623 53.59648926 -20.27905273 53.59790039 C-14.96885257 53.55682254 -10.03804186 53.17432809 -4.89453125 51.74609375 C-2.64744642 51.34630565 -1.13928378 51.71687202 1.015625 52.40625 C0.4539187 56.93218237 -0.2876734 61.15912669 -1.984375 65.40625 C-4.80531033 67.60222201 -7.48405118 68.01330375 -10.984375 68.40625 C-12.82515625 68.66728516 -12.82515625 68.66728516 -14.703125 68.93359375 C-28.33114633 70.59348834 -42.09230096 71.02652339 -53.421875 62.28125 C-59.29068088 56.59320816 -61.17415573 50.13036793 -61.484375 42.09375 C-61.04566648 29.64905163 -56.22413427 16.71700995 -47.671875 7.53125 C-35.90642715 -3.27533976 -14.68359352 -7.18777305 0 0 Z " fill="#FBD501" transform="translate(907.984375,717.59375)"/>
<path d="M0 0 C-0.58490879 6.14154225 -1.54066252 12.00679849 -3 18 C-5.71730403 17.52047576 -8.20761822 16.92618019 -10.8125 16 C-21.93398459 12.51090679 -36.95011743 12.0701647 -47.703125 16.74609375 C-57.87426198 22.29870425 -61.8149334 31.27030691 -65 42 C-65.391875 43.093125 -65.78375 44.18625 -66.1875 45.3125 C-67.83846278 52.80533109 -68.31222241 60.56163757 -64.34375 67.37890625 C-61.34825151 70.9926617 -57.3909808 72.53633973 -53 74 C-41.46421142 74.85671435 -30.01539853 74.70378383 -19 71 C-17.6696358 70.65500725 -16.33722532 70.31735993 -15 70 C-15.20851662 71.59862744 -15.42551163 73.19643762 -15.67578125 74.7890625 C-15.90932222 76.38164306 -16.08758017 77.98267923 -16.23046875 79.5859375 C-17.06191286 86.2570538 -17.06191286 86.2570538 -19.55859375 88.234375 C-21.69146979 89.07550921 -23.75801809 89.52020636 -26 90 C-26.74072754 90.17225098 -27.48145508 90.34450195 -28.24462891 90.52197266 C-42.55841052 93.66228646 -59.3647587 94.31922728 -72.28125 86.64453125 C-74.33962011 85.21212071 -76.16307672 83.7051261 -78 82 C-78.55429687 81.48695313 -79.10859375 80.97390625 -79.6796875 80.4453125 C-86.07633147 73.79407574 -88.21551762 65.81550531 -88.5 56.75 C-87.96060564 40.07934302 -81.37935752 22.21403994 -69.52734375 10.1796875 C-49.94507319 -6.70888588 -23.76377367 -7.72581321 0 0 Z " fill="#FBD401" transform="translate(605,695)"/>
<path d="M0 0 C3.4960159 3.02772739 5.82606328 6.32888641 6.30859375 10.96484375 C6.7353899 24.11792502 3.79389369 36.13466 0.73095703 48.86621094 C-0.74708656 55.20294024 -1.85856991 61.59530895 -3 68 C-9.6 68 -16.2 68 -23 68 C-22.35555864 62.20002776 -21.69800283 57.15596826 -20.37109375 51.578125 C-20.054807 50.20845597 -19.73906914 48.83866009 -19.42382812 47.46875 C-18.93393391 45.36369384 -18.43987655 43.25990866 -17.93579102 41.15820312 C-15.75593192 32.02273854 -14.49721692 23.45435338 -15 14 C-23.99054538 11.63888268 -31.76825129 12.7919792 -40 17 C-43.58648648 19.39099099 -43.67666381 20.86932128 -44.50831604 24.94190979 C-44.66154831 25.75643112 -44.81478058 26.57095245 -44.97265625 27.41015625 C-45.14123642 28.25162704 -45.30981659 29.09309784 -45.48350525 29.96006775 C-46.0215495 32.65871324 -46.54236581 35.36035118 -47.0625 38.0625 C-47.41615523 39.85634937 -47.77096002 41.6499725 -48.12695312 43.44335938 C-48.63236036 45.98995231 -49.13621035 48.53671447 -49.63063049 51.08546448 C-50.40507178 55.07108099 -51.20439738 59.05059027 -52.05249023 63.02124023 C-52.28862282 64.1303904 -52.28862282 64.1303904 -52.52952576 65.26194763 C-53 67 -53 67 -54 68 C-55.41570123 68.08651611 -56.835595 68.10704904 -58.25390625 68.09765625 C-59.10791016 68.09443359 -59.96191406 68.09121094 -60.84179688 68.08789062 C-61.73962891 68.07951172 -62.63746094 68.07113281 -63.5625 68.0625 C-64.46419922 68.05798828 -65.36589844 68.05347656 -66.29492188 68.04882812 C-68.53001314 68.03700225 -70.76497437 68.0205222 -73 68 C-72.50060497 59.05172781 -70.74083223 50.53151405 -68.75 41.8125 C-68.27421657 39.69384337 -67.800968 37.57463173 -67.32803345 35.45533752 C-67.01086757 34.03414473 -66.69297826 32.61311318 -66.37435913 31.19224548 C-64.66185518 23.5381239 -63.0768043 15.85837748 -61.51074219 8.1730957 C-61.32415039 7.26390381 -61.13755859 6.35471191 -60.9453125 5.41796875 C-60.78562988 4.63188232 -60.62594727 3.8457959 -60.46142578 3.03588867 C-60 1 -60 1 -59 -2 C-53.06 -2 -47.12 -2 -41 -2 C-40.505 0.97 -40.505 0.97 -40 4 C-39.35933594 3.66226563 -38.71867187 3.32453125 -38.05859375 2.9765625 C-26.22695109 -3.12440376 -12.59772085 -6.35750903 0 0 Z " fill="#FCD501" transform="translate(358,718)"/>
<path d="M0 0 C0.90226318 0.00008057 1.80452637 0.00016113 2.73413086 0.00024414 C10.00116279 0.06259111 16.53597905 0.88699302 23.4375 3.1875 C23.12603528 5.08350369 22.81328283 6.97929587 22.5 8.875 C22.32597656 9.93074219 22.15195313 10.98648438 21.97265625 12.07421875 C21.50582879 14.78999604 20.99327384 17.48874235 20.4375 20.1875 C19.84066406 19.9709375 19.24382812 19.754375 18.62890625 19.53125 C12.52020547 17.57065658 6.87110664 16.88591995 0.5 16.875 C-0.233396 16.86984375 -0.96679199 16.8646875 -1.72241211 16.859375 C-6.97185126 16.91995486 -6.97185126 16.91995486 -11.5625 19.1875 C-12.37421228 21.74269921 -12.37421228 21.74269921 -12.5625 24.1875 C-11.4075 24.55875 -10.2525 24.93 -9.0625 25.3125 C-7.22878254 25.93637208 -5.39552278 26.56158978 -3.5625 27.1875 C-2.93553223 27.39149414 -2.30856445 27.59548828 -1.66259766 27.80566406 C13.79025456 32.86456779 13.79025456 32.86456779 18.4375 40.1875 C20.49846905 44.30943811 20.02290906 49.24674171 18.71875 53.5703125 C15.04216158 62.31703494 10.9458054 66.38048794 2.3515625 70.20703125 C-10.70945449 74.60155573 -28.63818628 73.76826942 -41.5625 69.1875 C-41.11025239 63.27257728 -40.4042395 57.83550112 -38.5625 52.1875 C-37.77230469 52.4040625 -36.98210938 52.620625 -36.16796875 52.84375 C-28.7971626 54.66328615 -21.95196101 55.48841111 -14.375 55.5 C-13.13689575 55.50773438 -13.13689575 55.50773438 -11.8737793 55.515625 C-7.94634449 55.47000925 -5.89702145 55.4105143 -2.5625 53.1875 C-2.31219023 50.60369823 -2.31219023 50.60369823 -2.5625 48.1875 C-3.13693848 47.96610352 -3.71137695 47.74470703 -4.30322266 47.51660156 C-6.9342708 46.49768669 -9.56085174 45.46770141 -12.1875 44.4375 C-13.54294922 43.91542969 -13.54294922 43.91542969 -14.92578125 43.3828125 C-21.76484777 40.68712205 -27.64150937 37.83752627 -32.5625 32.1875 C-34.59467022 26.09098933 -34.19105812 20.84091959 -31.5 15 C-27.43620869 7.66923921 -22.58091056 4.03896458 -14.578125 1.73046875 C-13.91296875 1.55128906 -13.2478125 1.37210938 -12.5625 1.1875 C-8.36724688 -0.21091771 -4.39516592 -0.00358594 0 0 Z " fill="#FBD501" transform="translate(1020.5625,714.8125)"/>
<path d="M0 0 C-0.31014392 2.08368538 -0.6232052 4.16693668 -0.9375 6.25 C-1.11152344 7.41015625 -1.28554688 8.5703125 -1.46484375 9.765625 C-1.8727736 12.23106961 -2.33901303 14.59424562 -3 17 C-3.76441406 16.7834375 -4.52882813 16.566875 -5.31640625 16.34375 C-14.65892993 13.91536839 -25.52442986 12.06989851 -35 15 C-35 16.65 -35 18.3 -35 20 C-29.78722368 22.74485253 -24.46802018 24.72825612 -18.921875 26.66210938 C-13.08683503 28.77230036 -7.07348844 31.29060453 -4 37 C-3.03469521 43.57450829 -3.10570015 50.43438149 -6.625 56.2265625 C-12.27784043 63.51744192 -18.90131989 67.41058622 -28 69 C-40.10927318 69.96943608 -53.38172902 69.87275699 -65 66 C-64.80083984 64.91332031 -64.80083984 64.91332031 -64.59765625 63.8046875 C-64.42105469 62.83789062 -64.24445312 61.87109375 -64.0625 60.875 C-63.88847656 59.92367187 -63.71445312 58.97234375 -63.53515625 57.9921875 C-62.99971837 54.99842533 -62.49420018 52.00081912 -62 49 C-61.29359375 49.2165625 -60.5871875 49.433125 -59.859375 49.65625 C-49.07679937 52.58217505 -35.92028941 54.07474928 -25 51 C-24.58219121 48.62694422 -24.58219121 48.62694422 -25 46 C-29.77052242 42.45293164 -35.66707144 40.80202908 -41.23046875 38.86914062 C-47.01976917 36.73342391 -53.11625501 33.76748998 -56 28 C-56.738665 20.64500707 -56.7393483 14.24441827 -52.60546875 7.93359375 C-40.34093513 -6.83755988 -16.73574042 -5.57858014 0 0 Z " fill="#FBD501" transform="translate(838,718)"/>
<path d="M0 0 C24.71787183 28.46816963 29.92317813 73.04812956 29 109 C22.49168031 107.33501152 16.20525787 105.54711015 10.0625 102.8125 C9.04845093 102.3640271 9.04845093 102.3640271 8.01391602 101.90649414 C-1.2924545 97.6525613 -9.44468531 91.8684679 -17 85 C-15.43700287 79.690526 -13.81827662 74.40520883 -12.09765625 69.14453125 C-4.66270889 46.19207089 -1.42854351 24.04424555 0 0 Z " fill="#010101" transform="translate(751,382)"/>
<path d="M0 0 C-0.11617644 1.37577361 -0.24345777 2.75061045 -0.375 4.125 C-0.44460938 4.89070312 -0.51421875 5.65640625 -0.5859375 6.4453125 C-1.50450429 12.11269628 -1.50450429 12.11269628 -3 15 C-5.83697484 16.0411482 -8.12720455 16.64792033 -11.0625 17.125 C-14.06711592 17.66353808 -17.03491123 18.2734049 -20 19 C-20.81484863 19.1944873 -21.62969727 19.38897461 -22.46923828 19.58935547 C-25.09046557 20.44121463 -26.88093254 21.22823418 -29 23 C-30.74674653 26.83435961 -31.21785507 30.71894507 -31.75 34.875 C-32.12001925 37.21412655 -32.49378985 39.55266242 -32.87109375 41.890625 C-33.05140137 43.07205078 -33.23170898 44.25347656 -33.41748047 45.47070312 C-34.31536924 50.91071992 -35.54795332 56.26045617 -36.8125 61.625 C-37.8953125 66.265625 -37.8953125 66.265625 -39 71 C-45.6 71 -52.2 71 -59 71 C-57.50038103 61.4874916 -55.59544969 52.09595236 -53.5625 42.6875 C-52.95820144 39.87921281 -52.3555179 37.07058273 -51.75390625 34.26171875 C-51.60686752 33.57573105 -51.4598288 32.88974335 -51.30833435 32.18296814 C-49.80408623 25.13535743 -48.39684211 18.06960242 -47 11 C-46.60469911 9.02072692 -46.20893151 7.04154694 -45.8125 5.0625 C-45.544375 3.721875 -45.27625 2.38125 -45 1 C-38.73 1 -32.46 1 -26 1 C-25.505 3.97 -25.505 3.97 -25 7 C-23.98679687 6.57847656 -22.97359375 6.15695312 -21.9296875 5.72265625 C-20.5782582 5.16894563 -19.22668817 4.6155784 -17.875 4.0625 C-17.20984375 3.78470703 -16.5446875 3.50691406 -15.859375 3.22070312 C-10.52261536 1.04937445 -5.81313898 0 0 0 Z " fill="#FBD501" transform="translate(983,715)"/>
<path d="M0 0 C9.24 0 18.48 0 28 0 C28 7.77659574 28 7.77659574 26.75 12.125 C25.27325041 17.67316202 24.16123854 23.23262134 23.125 28.875 C21.52971939 37.51603793 19.68114453 46.07651278 17.66259766 54.62841797 C16.77151873 58.43523798 15.92573888 62.19154028 15.41796875 66.0703125 C15 69 15 69 14 70 C12.58429877 70.08651611 11.164405 70.10704904 9.74609375 70.09765625 C8.89208984 70.09443359 8.03808594 70.09121094 7.15820312 70.08789062 C6.26037109 70.07951172 5.36253906 70.07113281 4.4375 70.0625 C3.53580078 70.05798828 2.63410156 70.05347656 1.70507812 70.04882812 C-0.53001314 70.03700225 -2.76497437 70.0205222 -5 70 C-5.14242773 65.09892538 -4.69482238 60.83074585 -3.57421875 56.0625 C-3.42596146 55.41990234 -3.27770416 54.77730469 -3.12495422 54.11523438 C-2.65297846 52.07507214 -2.17080713 50.03750452 -1.6875 48 C-1.06299854 45.33412092 -0.44303019 42.66720493 0.17578125 40 C0.40541061 39.01664673 0.40541061 39.01664673 0.63967896 38.01342773 C2.02930652 32.00727447 3.22085964 25.96927682 4.37573242 19.9140625 C5 17 5 17 6 15 C2.7 15 -0.6 15 -4 15 C-3.40656104 9.30298599 -2.10935397 5.62494392 0 0 Z " fill="#FCD501" transform="translate(253,716)"/>
<path d="M0 0 C2.09597437 1.19769964 4.10698626 2.42339251 5.82421875 4.140625 C5.89570034 10.98856126 4.43579145 17.832341 3.07421875 24.515625 C2.8572937 25.6746936 2.8572937 25.6746936 2.63598633 26.85717773 C1.53203548 31.98015611 0.0427076 34.75179356 -4.17578125 38.140625 C-10.58503521 41.40147351 -17.0323292 42.14563481 -24.17578125 41.140625 C-26.98073468 39.70813808 -28.95083145 38.3655748 -31.17578125 36.140625 C-32.50554842 25.64164934 -30.36250987 16.34906424 -24.30078125 7.703125 C-18.36910714 0.37487951 -9.26161372 -3.658088 0 0 Z " fill="#676663" transform="translate(741.17578125,730.859375)"/>
<path d="M0 0 C5.26191907 3.16856971 5.26191907 3.16856971 6.53515625 6.98828125 C5.94659926 11.51968829 4.88532422 15.96357901 3.91015625 20.42578125 C3.66136719 21.66650391 3.41257812 22.90722656 3.15625 24.18554688 C2.89714844 25.37728516 2.63804687 26.56902344 2.37109375 27.796875 C2.1395459 28.88798584 1.90799805 29.97909668 1.66943359 31.10327148 C0.2785629 34.64092085 -1.31974717 35.92089806 -4.46484375 37.98828125 C-10.76183134 40.61202608 -17.73178366 40.78090731 -24.46484375 39.98828125 C-27.16094417 38.63836135 -28.96881345 37.64965498 -30.77734375 35.23828125 C-33.18150154 27.3701285 -30.4891891 18.35346251 -27.140625 11.1328125 C-21.50138107 1.11242368 -11.59649751 -4.75989359 0 0 Z " fill="#676763" transform="translate(425.46484375,731.01171875)"/>
<path d="M0 0 C4.56237931 -0.08719631 9.12454386 -0.14045922 13.6875 -0.1875 C14.98107422 -0.21263672 16.27464844 -0.23777344 17.60742188 -0.26367188 C18.85458984 -0.27333984 20.10175781 -0.28300781 21.38671875 -0.29296875 C22.53358154 -0.3086792 23.68044434 -0.32438965 24.86206055 -0.34057617 C28.63731335 0.06917079 31.29642254 1.29642254 34 4 C34.60132916 10.68400485 34.38875349 16.15732157 31 22 C27.94029004 25.62334074 25.49062012 27.56284125 21 29 C17.95385742 29.22705078 17.95385742 29.22705078 14.60546875 29.1953125 C13.40341797 29.18886719 12.20136719 29.18242188 10.96289062 29.17578125 C9.71701172 29.15902344 8.47113281 29.14226563 7.1875 29.125 C5.28967773 29.11146484 5.28967773 29.11146484 3.35351562 29.09765625 C0.23548436 29.07412394 -2.88216097 29.04124545 -6 29 C-5.38095185 25.47809362 -4.75368633 21.9576976 -4.125 18.4375 C-3.95097656 17.44685547 -3.77695313 16.45621094 -3.59765625 15.43554688 C-2.65551439 10.18397835 -1.58650382 5.09539289 0 0 Z " fill="#666564" transform="translate(187,709)"/>
<path d="M0 0 C2.22436577 1.42725649 3.61629123 2.79117621 4.80078125 5.16015625 C5.03266531 12.46450408 5.03266531 12.46450408 3.80078125 16.16015625 C-7.08921875 16.16015625 -17.97921875 16.16015625 -29.19921875 16.16015625 C-28.06351952 9.34596089 -26.31245367 5.45715496 -20.82421875 1.28515625 C-14.83419591 -2.19401115 -6.44302275 -2.46047938 0 0 Z " fill="#686762" transform="translate(897.19921875,729.83984375)"/>
<path d="M0 0 C7.26 0 14.52 0 22 0 C20.125 12.625 20.125 12.625 19 16 C11.74 16 4.48 16 -3 16 C-2.01 10.72 -1.02 5.44 0 0 Z " fill="#FBD401" transform="translate(266,688)"/>
<path d="M0 0 C11.44444444 0 11.44444444 0 15 3 C17.68209911 7.02314866 17.68843415 10.27219919 17 15 C14.88608123 18.49890004 13.88263941 19.70578686 10 21 C6.7 21 3.4 21 0 21 C0 14.07 0 7.14 0 0 Z " fill="#626156" transform="translate(137,824)"/>
<path d="M0 0 C2.69990662 1.79993774 4.5418865 3.083773 6 6 C6.55512815 10.63213493 6.6364242 13.98172127 4.125 18 C1.6035024 20.37317421 0.62768757 20.93025694 -2.8125 21.3125 C-6.77698767 20.92382474 -8.21158832 19.78841168 -11 17 C-13.05124631 14.2960844 -13.00081224 13.02233672 -12.875 9.5625 C-11.92645533 5.70056814 -10.74586726 3.82907536 -8 1 C-5.14675563 -0.42662219 -3.16545451 -0.31033868 0 0 Z " fill="#606059" transform="translate(379,824)"/>
<path d="M0 0 C1.32 0.33 2.64 0.66 4 1 C4 3.64 4 6.28 4 9 C7.3 9 10.6 9 14 9 C14 6.03 14 3.06 14 0 C15.65 0 17.3 0 19 0 C19 7.59 19 15.18 19 23 C17.35 23 15.7 23 14 23 C14 19.7 14 16.4 14 13 C11.03 13 8.06 13 5 13 C5 16.3 5 19.6 5 23 C3.35 23 1.7 23 0 23 C0 15.41 0 7.82 0 0 Z " fill="#545340" transform="translate(839,823)"/>
<path d="M0 0 C10.14938489 -0.48330404 10.14938489 -0.48330404 13.75 1.5625 C15.50708726 4.98882015 14.8469611 7.32983522 14 11 C13.01 11.33 12.02 11.66 11 12 C12.32 14.97 13.64 17.94 15 21 C11.24623848 19.74874616 10.75926711 18.4347596 9 15 C9 14.34 9 13.68 9 13 C6.69 13 4.38 13 2 13 C2 15.64 2 18.28 2 21 C1.34 21 0.68 21 0 21 C0 14.07 0 7.14 0 0 Z " fill="#F4CF02" transform="translate(926,824)"/>
<path d="M0 0 C10.46832332 -0.36947023 10.46832332 -0.36947023 12.84375 1.28125 C14.70470674 4.04753705 14.18268024 6.77264913 14 10 C12.02 10.99 12.02 10.99 10 12 C11.65 14.97 13.3 17.94 15 21 C14.01 21 13.02 21 12 21 C11.46375 19.865625 10.9275 18.73125 10.375 17.5625 C8.63257149 14.45370668 8.37723731 14.10881846 4.75 13.0625 C3.8425 13.041875 2.935 13.02125 2 13 C2 15.64 2 18.28 2 21 C1.34 21 0.68 21 0 21 C0 14.07 0 7.14 0 0 Z " fill="#E7C406" transform="translate(172,824)"/>
<path d="M0 0 C8 0 8 0 10.5 1.4375 C12.73570183 5.25682396 12.76004105 8.68518361 12 13 C10.5 15.5625 10.5 15.5625 8 17 C5.36 17 2.72 17 0 17 C0 11.39 0 5.78 0 0 Z " fill="#5F5F59" transform="translate(336,826)"/>
<path d="M0 0 C3.96873434 1.32291145 4.29905037 2.91149738 6.1875 6.5625 C6.71730469 7.57441406 7.24710937 8.58632813 7.79296875 9.62890625 C8.19128906 10.41136719 8.58960938 11.19382812 9 12 C9.66 12 10.32 12 11 12 C12.23553408 10.04179504 13.38994429 8.03196639 14.5 6 C15.61005571 3.96803361 16.76446592 1.95820496 18 0 C18.66 0 19.32 0 20 0 C20 6.93 20 13.86 20 21 C19.34 21 18.68 21 18 21 C17.67 16.38 17.34 11.76 17 7 C16.05125 8.65 15.1025 10.3 14.125 12 C12.5078125 14.8125 12.5078125 14.8125 11 17 C10.34 17 9.68 17 9 17 C6.78563385 13.78744808 4.946471 10.38516696 3 7 C2.67 11.62 2.34 16.24 2 21 C1.34 21 0.68 21 0 21 C0 14.07 0 7.14 0 0 Z " fill="#E7C406" transform="translate(403,824)"/>
<path d="M0 0 C0.66 0 1.32 0 2 0 C3.33912585 3.12254943 4.67030658 6.24842358 6 9.375 C6.3815625 10.26445313 6.763125 11.15390625 7.15625 12.0703125 C7.5171875 12.92109375 7.878125 13.771875 8.25 14.6484375 C8.58515625 15.43395996 8.9203125 16.21948242 9.265625 17.02880859 C10 19 10 19 10 21 C9.01 20.67 8.02 20.34 7 20 C6.67 18.02 6.34 16.04 6 14 C2.7 14.33 -0.6 14.66 -4 15 C-4.66 16.98 -5.32 18.96 -6 21 C-6.99 20.67 -7.98 20.34 -9 20 C-7.69146915 16.8525009 -6.37751443 13.70729519 -5.0625 10.5625 C-4.50272461 9.21575195 -4.50272461 9.21575195 -3.93164062 7.84179688 C-3.57392578 6.98779297 -3.21621094 6.13378906 -2.84765625 5.25390625 C-2.51773682 4.46314697 -2.18781738 3.6723877 -1.84790039 2.85766602 C-1 1 -1 1 0 0 Z " fill="#E1C008" transform="translate(504,824)"/>
<path d="M0 0 C0.66 0 1.32 0 2 0 C3.33912585 3.12254943 4.67030658 6.24842358 6 9.375 C6.3815625 10.26445313 6.763125 11.15390625 7.15625 12.0703125 C7.69765625 13.34648438 7.69765625 13.34648438 8.25 14.6484375 C8.58515625 15.43395996 8.9203125 16.21948242 9.265625 17.02880859 C10 19 10 19 10 21 C9.34 21 8.68 21 8 21 C6.5393715 18.35261084 6 17.10551666 6 14 C2.7 14 -0.6 14 -4 14 C-4.66 16.31 -5.32 18.62 -6 21 C-6.66 21 -7.32 21 -8 21 C-7.301897 16.49723568 -5.71324524 12.44421829 -4 8.25 C-3.59007812 7.22326172 -3.59007812 7.22326172 -3.171875 6.17578125 C-1.13600498 1.13600498 -1.13600498 1.13600498 0 0 Z " fill="#D8B80A" transform="translate(210,824)"/>
<path d="M0 0 C3 1 3 1 3.9831543 2.62646484 C4.3994812 3.65827881 4.3994812 3.65827881 4.82421875 4.7109375 C5.13037109 5.46117187 5.43652344 6.21140625 5.75195312 6.984375 C6.06068359 7.77328125 6.36941406 8.5621875 6.6875 9.375 C7.00783203 10.15617188 7.32816406 10.93734375 7.65820312 11.7421875 C10 17.57421042 10 17.57421042 10 21 C9.34 21 8.68 21 8 21 C7.34 18.69 6.68 16.38 6 14 C2.7 14 -0.6 14 -4 14 C-4.66 16.31 -5.32 18.62 -6 21 C-6.66 21 -7.32 21 -8 21 C-5.72564796 13.81783567 -2.96415819 6.9241798 0 0 Z " fill="#E8C506" transform="translate(702,824)"/>
<path d="M0 0 C3.56181249 1.78090625 4.56690846 2.33761822 6.796875 5.2578125 C7.28027344 5.88300781 7.76367188 6.50820313 8.26171875 7.15234375 C8.75285156 7.80332031 9.24398437 8.45429687 9.75 9.125 C10.50990234 10.11306641 10.50990234 10.11306641 11.28515625 11.12109375 C12.53030858 12.74214112 13.76608569 14.37038213 15 16 C15.33 10.72 15.66 5.44 16 0 C16.66 0 17.32 0 18 0 C18 6.93 18 13.86 18 21 C17.01 21 16.02 21 15 21 C13.15458179 18.93348536 11.51274251 16.90812781 9.875 14.6875 C9.41996094 14.09259766 8.96492187 13.49769531 8.49609375 12.88476562 C6.53547071 10.28126767 5.03713159 8.11139478 4 5 C3.34 5 2.68 5 2 5 C2 10.28 2 15.56 2 21 C1.34 21 0.68 21 0 21 C0 14.07 0 7.14 0 0 Z " fill="#E3C108" transform="translate(978,824)"/>
<path d="M0 0 C0.66 0 1.32 0 2 0 C3.32861328 1.46875 3.32861328 1.46875 4.8203125 3.5 C5.35527344 4.221875 5.89023437 4.94375 6.44140625 5.6875 C6.99699219 6.450625 7.55257813 7.21375 8.125 8 C8.96998047 9.1446875 8.96998047 9.1446875 9.83203125 10.3125 C11.22709549 12.20411253 12.61428494 14.10152799 14 16 C14.33 10.72 14.66 5.44 15 0 C15.66 0 16.32 0 17 0 C17 6.93 17 13.86 17 21 C12.59879886 18.79939943 10.57571502 16.21928671 7.75 12.375 C7.29109375 11.76398437 6.8321875 11.15296875 6.359375 10.5234375 C5.23248748 9.0209208 4.11527563 7.51115591 3 6 C2.67 10.95 2.34 15.9 2 21 C1.34 21 0.68 21 0 21 C0 14.07 0 7.14 0 0 Z " fill="#ECC904" transform="translate(462,824)"/>
<path d="M0 0 C11.44444444 0 11.44444444 0 15 3 C17.68209911 7.02314866 17.68843415 10.27219919 17 15 C14.88608123 18.49890004 13.88263941 19.70578686 10 21 C6.7 21 3.4 21 0 21 C0 14.07 0 7.14 0 0 Z M2 2 C2 7.61 2 13.22 2 19 C8.28199971 19.69717807 8.28199971 19.69717807 13.5625 16.9375 C15.36478899 13.25456163 15.57957768 11.05704375 15 7 C13.74612994 3.91182268 13.74612994 3.91182268 11 2 C7.87789286 1.58085309 5.17392665 1.76662304 2 2 Z " fill="#E5C207" transform="translate(137,824)"/>
<path d="M0 0 C0.66 0 1.32 0 2 0 C2 2.97 2 5.94 2 9 C5.96 9 9.92 9 14 9 C14 6.03 14 3.06 14 0 C14.99 0 15.98 0 17 0 C17 6.93 17 13.86 17 21 C16.34 21 15.68 21 15 21 C15 17.7 15 14.4 15 11 C10.71 11 6.42 11 2 11 C2 14.3 2 17.6 2 21 C1.34 21 0.68 21 0 21 C0 14.07 0 7.14 0 0 Z " fill="#CFB10D" transform="translate(840,824)"/>
<path d="M0 0 C2.875 2.5 2.875 2.5 5 5 C4.29875 4.67 3.5975 4.34 2.875 4 C-0.34160154 2.88118207 -2.61830655 2.63242462 -6 3 C-8.03882095 3.87129307 -8.03882095 3.87129307 -9 6 C-9.39174433 10.11331542 -9.56377991 12.74715576 -7.875 16.5 C-6.00363206 18.26514017 -6.00363206 18.26514017 -3 18.375 C0.17702205 18.2049729 0.17702205 18.2049729 3 16 C3.72382467 13.94074861 3.72382467 13.94074861 4 12 C2.35 12 0.7 12 -1 12 C-1 11.34 -1 10.68 -1 10 C1.31 10 3.62 10 6 10 C6 13.63 6 17.26 6 21 C5.34 21 4.68 21 4 21 C3.67 20.34 3.34 19.68 3 19 C2.01 19.66 1.02 20.32 0 21 C-3.8973724 21.50835292 -5.50556726 21.32962183 -8.8125 19.125 C-11.74617393 16.27514533 -12.18541445 14.66728434 -12.3125 10.6875 C-12.28413514 7.16458401 -12.06650675 6.10641081 -10.125 3 C-6.7693244 -0.15828291 -4.58013378 -0.53883927 0 0 Z " fill="#E3C107" transform="translate(1025,824)"/>
<path d="M0 0 C1.65 0 3.3 0 5 0 C5 7.59 5 15.18 5 23 C3.35 23 1.7 23 0 23 C0 15.41 0 7.82 0 0 Z " fill="#8B7D2B" transform="translate(957,823)"/>
<path d="M0 0 C1.65 0 3.3 0 5 0 C5 7.59 5 15.18 5 23 C3.35 23 1.7 23 0 23 C0 15.41 0 7.82 0 0 Z " fill="#8C7E2B" transform="translate(440,823)"/>
<path d="M0 0 C10 0 10 0 13.0625 1.875 C16.30561647 5.43196646 16.33412662 8.07414491 16.2890625 12.73828125 C15.86115823 16.08634301 14.44926739 17.76066981 12 20 C9 21 9 21 0 21 C0 14.07 0 7.14 0 0 Z M2 2 C2 7.61 2 13.22 2 19 C9.32476126 19.66462817 9.32476126 19.66462817 12.5 17.5625 C14.73570183 13.74317604 14.76004105 10.31481639 14 6 C12.68620182 3.26938424 12.68620182 3.26938424 10 2 C7.36 2 4.72 2 2 2 Z " fill="#E7C406" transform="translate(334,824)"/>
<path d="M0 0 C2.69990662 1.79993774 4.5418865 3.083773 6 6 C6.55512815 10.63213493 6.6364242 13.98172127 4.125 18 C1.6035024 20.37317421 0.62768757 20.93025694 -2.8125 21.3125 C-6.77698767 20.92382474 -8.21158832 19.78841168 -11 17 C-13.05124631 14.2960844 -13.00081224 13.02233672 -12.875 9.5625 C-11.92645533 5.70056814 -10.74586726 3.82907536 -8 1 C-5.14675563 -0.42662219 -3.16545451 -0.31033868 0 0 Z M-8.375 3.4375 C-10.77513557 7.22232917 -10.7842297 10.6387226 -10 15 C-8.55985074 17.69138543 -8.55985074 17.69138543 -6 19 C-2.43283597 19.59452734 -0.72548536 19.43910956 2.375 17.5625 C4.77513557 13.77767083 4.7842297 10.3612774 4 6 C2.55985074 3.30861457 2.55985074 3.30861457 0 2 C-3.56716403 1.40547266 -5.27451464 1.56089044 -8.375 3.4375 Z " fill="#E2C107" transform="translate(379,824)"/>
<path d="M0 0 C4.62 0 9.24 0 14 0 C14 0.66 14 1.32 14 2 C10.04 2 6.08 2 2 2 C2 4.31 2 6.62 2 9 C5.3 9 8.6 9 12 9 C12 9.66 12 10.32 12 11 C8.7 11 5.4 11 2 11 C2 13.64 2 16.28 2 19 C5.96 19 9.92 19 14 19 C14 19.66 14 20.32 14 21 C9.38 21 4.76 21 0 21 C0 14.07 0 7.14 0 0 Z " fill="#EDC904" transform="translate(875,824)"/>
<path d="M0 0 C4.62 0 9.24 0 14 0 C14 0.66 14 1.32 14 2 C10.04 2 6.08 2 2 2 C2 4.31 2 6.62 2 9 C5.3 9 8.6 9 12 9 C12 9.66 12 10.32 12 11 C8.7 11 5.4 11 2 11 C2 13.64 2 16.28 2 19 C5.96 19 9.92 19 14 19 C14 19.66 14 20.32 14 21 C9.38 21 4.76 21 0 21 C0 14.07 0 7.14 0 0 Z " fill="#E5C307" transform="translate(759,824)"/>
<path d="M0 0 C0.66 0 1.32 0 2 0 C2 2.97 2 5.94 2 9 C5.96 9 9.92 9 14 9 C14 6.03 14 3.06 14 0 C14.66 0 15.32 0 16 0 C16 6.93 16 13.86 16 21 C15.34 21 14.68 21 14 21 C14 17.7 14 14.4 14 11 C10.04 11 6.08 11 2 11 C2 14.3 2 17.6 2 21 C1.34 21 0.68 21 0 21 C0 14.07 0 7.14 0 0 Z " fill="#EBC805" transform="translate(661,824)"/>
<path d="M0 0 C4.29 0 8.58 0 13 0 C13 0.66 13 1.32 13 2 C9.37 2 5.74 2 2 2 C2 4.31 2 6.62 2 9 C5.3 9 8.6 9 12 9 C12 9.66 12 10.32 12 11 C8.7 11 5.4 11 2 11 C2 13.64 2 16.28 2 19 C5.96 19 9.92 19 14 19 C14 19.66 14 20.32 14 21 C9.38 21 4.76 21 0 21 C0 14.07 0 7.14 0 0 Z " fill="#EDC904" transform="translate(559,824)"/>
<path d="M0 0 C0.99 0.66 1.98 1.32 3 2 C2.67 2.66 2.34 3.32 2 4 C1.34 3.67 0.68 3.34 0 3 C-2.3329866 2.95977609 -4.66706666 2.95679753 -7 3 C-7 4.65 -7 6.3 -7 8 C-3.37 9.32 0.26 10.64 4 12 C4.35555556 17.33333333 4.35555556 17.33333333 3 19.875 C-0.18740336 21.66791439 -3.47154369 21.43307009 -7 21 C-9.5 20 -9.5 20 -11 19 C-11 18.34 -11 17.68 -11 17 C-10.505 17.165 -10.01 17.33 -9.5 17.5 C-5.96555911 18.20688818 -2.60309299 18.06005155 1 18 C0.67 16.35 0.34 14.7 0 13 C-0.63808594 12.79503906 -1.27617188 12.59007812 -1.93359375 12.37890625 C-2.75988281 12.10949219 -3.58617187 11.84007812 -4.4375 11.5625 C-5.26121094 11.29566406 -6.08492187 11.02882813 -6.93359375 10.75390625 C-9 10 -9 10 -10 9 C-10.45232816 3.79822616 -10.45232816 3.79822616 -8.9375 1.125 C-5.92517484 -0.62409203 -3.40497373 -0.30401551 0 0 Z " fill="#E7C506" transform="translate(738,824)"/>
<path d="M0 0 C6.8359375 -0.1953125 6.8359375 -0.1953125 9 0 C11 2 11 2 11.25 4.5 C11 7 11 7 9 9 C5.98173347 9.27240673 3.03629378 9.08675125 0 9 C0 6.03 0 3.06 0 0 Z " fill="#5E5D52" transform="translate(928,826)"/>
<path d="M0 0 C3.77130907 0.25568197 5.11206772 0.57155043 7.6875 3.25 C7.6875 3.91 7.6875 4.57 7.6875 5.25 C7.171875 4.92 6.65625 4.59 6.125 4.25 C2.78513163 2.87979759 0.26150356 2.8601087 -3.3125 3.25 C-5.42920357 4.71041766 -5.42920357 4.71041766 -6.3125 7.25 C-6.7004235 10.87061933 -6.71109421 13.33557799 -5.25 16.6875 C-2.29224657 19.07278502 0.00426719 18.63770872 3.6875 18.25 C6.04119807 17.36935073 6.04119807 17.36935073 7.6875 16.25 C6.95703125 18.18359375 6.95703125 18.18359375 5.6875 20.25 C2.71880213 21.42231488 -0.15013533 21.58862972 -3.3125 21.25 C-6.11915387 19.08653764 -7.736534 17.40193199 -9.3125 14.25 C-9.81948467 9.09565588 -9.81948467 9.09565588 -9.3125 6.25 C-6.875 3.3125 -6.875 3.3125 -4.3125 1.25 C-3.3125 0.25 -3.3125 0.25 0 0 Z " fill="#E7C406" transform="translate(636.3125,823.75)"/>
<path d="M0 0 C4.62 0 9.24 0 14 0 C14 0.66 14 1.32 14 2 C10.04 2 6.08 2 2 2 C2 4.31 2 6.62 2 9 C5.3 9 8.6 9 12 9 C12 9.66 12 10.32 12 11 C8.7 11 5.4 11 2 11 C2 14.3 2 17.6 2 21 C1.34 21 0.68 21 0 21 C0 14.07 0 7.14 0 0 Z " fill="#E3C108" transform="translate(236,824)"/>
<path d="M0 0 C6.0546875 -0.1953125 6.0546875 -0.1953125 8 0 C8.66 0.66 9.32 1.32 10 2 C9.625 5.625 9.625 5.625 9 9 C6.03 9 3.06 9 0 9 C0 6.03 0 3.06 0 0 Z " fill="#5B5B57" transform="translate(174,826)"/>
<path d="M0 0 C1.65 0 3.3 0 5 0 C5 7.59 5 15.18 5 23 C3.35 22.67 1.7 22.34 0 22 C0 21.01 0 20.02 0 19 C1.32 19.99 2.64 20.98 4 22 C4 15.07 4 8.14 4 1 C3.34 1 2.68 1 2 1 C2 6.61 2 12.22 2 18 C0.35 16.35 -1.3 14.7 -3 13 C-2.67 12.34 -2.34 11.68 -2 11 C-1.67 11.33 -1.34 11.66 -1 12 C-0.67 8.04 -0.34 4.08 0 0 Z " fill="#54523F" transform="translate(475,823)"/>
<path d="M0 0 C2.475 0.495 2.475 0.495 5 1 C4.67 1.66 4.34 2.32 4 3 C3.01 2.34 2.02 1.68 1 1 C1 7.93 1 14.86 1 22 C1.66 22 2.32 22 3 22 C3 16.72 3 11.44 3 6 C3.66 6 4.32 6 5 6 C6.38232443 7.62626404 7.71937515 9.2925002 9 11 C8.67 11.66 8.34 12.32 8 13 C7.34 12.34 6.68 11.68 6 11 C5.67 14.96 5.34 18.92 5 23 C3.35 23 1.7 23 0 23 C0 15.41 0 7.82 0 0 Z " fill="#5C593C" transform="translate(977,823)"/>
<path d="M0 0 C5.61 0 11.22 0 17 0 C17 0.66 17 1.32 17 2 C14.69 2 12.38 2 10 2 C10 8.27 10 14.54 10 21 C9.34 21 8.68 21 8 21 C8 14.73 8 8.46 8 2 C5.36 2 2.72 2 0 2 C0 1.34 0 0.68 0 0 Z " fill="#E4C207" transform="translate(807,824)"/>
<path d="M0 0 C5.61 0 11.22 0 17 0 C17 0.66 17 1.32 17 2 C14.36 2 11.72 2 9 2 C9 8.27 9 14.54 9 21 C8.34 21 7.68 21 7 21 C7 14.73 7 8.46 7 2 C4.69 2 2.38 2 0 2 C0 1.34 0 0.68 0 0 Z " fill="#E1BF07" transform="translate(526,824)"/>
<path d="M0 0 C5.28 0 10.56 0 16 0 C16 0.66 16 1.32 16 2 C13.69 2 11.38 2 9 2 C9 8.27 9 14.54 9 21 C8.34 21 7.68 21 7 21 C7 14.73 7 8.46 7 2 C4.69 2 2.38 2 0 2 C0 1.34 0 0.68 0 0 Z " fill="#F2CD03" transform="translate(265,824)"/>
<path d="M0 0 C1.65 0 3.3 0 5 0 C5 7.59 5 15.18 5 23 C3.68 22.67 2.36 22.34 1 22 C1.99 22 2.98 22 4 22 C4 15.07 4 8.14 4 1 C3.34 1 2.68 1 2 1 C2 6.61 2 12.22 2 18 C0.35 16.35 -1.3 14.7 -3 13 C-2.34 12.67 -1.68 12.34 -1 12 C-0.53101037 9.1840151 -0.53101037 9.1840151 -0.375 5.9375 C-0.30023437 4.83277344 -0.22546875 3.72804688 -0.1484375 2.58984375 C-0.09945312 1.73519531 -0.05046875 0.88054688 0 0 Z " fill="#5F5C3D" transform="translate(992,823)"/>
<path d="M0 0 C0.66 0 1.32 0 2 0 C3.5078125 1.96875 3.5078125 1.96875 5.125 4.5 C5.66382813 5.3353125 6.20265625 6.170625 6.7578125 7.03125 C7.16773438 7.6809375 7.57765625 8.330625 8 9 C7.01 9 6.02 9 5 9 C4.34 8.01 3.68 7.02 3 6 C2.67 10.95 2.34 15.9 2 21 C1.34 21 0.68 21 0 21 C0 14.07 0 7.14 0 0 Z " fill="#E2C107" transform="translate(462,824)"/>
<path d="M0 0 C0.66 0 1.32 0 2 0 C2 3.3 2 6.6 2 10 C5.96 10 9.92 10 14 10 C14 10.33 14 10.66 14 11 C10.04 11 6.08 11 2 11 C2 14.3 2 17.6 2 21 C1.34 21 0.68 21 0 21 C0 14.07 0 7.14 0 0 Z " fill="#E3C108" transform="translate(840,824)"/>
<path d="M0 0 C0.66 0 1.32 0 2 0 C3.33912585 3.12254943 4.67030658 6.24842358 6 9.375 C6.3815625 10.26445313 6.763125 11.15390625 7.15625 12.0703125 C7.69765625 13.34648438 7.69765625 13.34648438 8.25 14.6484375 C8.58515625 15.43395996 8.9203125 16.21948242 9.265625 17.02880859 C10 19 10 19 10 21 C9.34 21 8.68 21 8 21 C6.5393715 18.35261084 6 17.10551666 6 14 C2.7 14 -0.6 14 -4 14 C-4 13.67 -4 13.34 -4 13 C-1.03 13 1.94 13 5 13 C4.2575 11.3603125 4.2575 11.3603125 3.5 9.6875 C2 6 2 6 2 3 C1.34 3 0.68 3 0 3 C0 2.01 0 1.02 0 0 Z " fill="#EBC805" transform="translate(210,824)"/>
<path d="M0 0 C2.69990662 1.79993774 4.5418865 3.083773 6 6 C6.04022391 8.3329866 6.04320247 10.66706666 6 13 C5.67 13 5.34 13 5 13 C4.731875 11.906875 4.46375 10.81375 4.1875 9.6875 C3.01260267 5.57732916 3.01260267 5.57732916 0 3 C-4.20083797 2.47225567 -4.20083797 2.47225567 -7.8125 4.375 C-9.06987173 6.00086797 -9.06987173 6.00086797 -10 8 C-10.66 8 -11.32 8 -12 8 C-9.92408462 1.59926091 -6.88337584 -0.98333941 0 0 Z " fill="#EAC705" transform="translate(379,824)"/>
<path d="M0 0 C0.66 0 1.32 0 2 0 C2 6.93 2 13.86 2 21 C1.01 21 0.02 21 -1 21 C-1.33 19.68 -1.66 18.36 -2 17 C-1.34 17 -0.68 17 0 17 C0 11.39 0 5.78 0 0 Z " fill="#D7B70B" transform="translate(994,824)"/>
<path d="M0 0 C2.875 2.5 2.875 2.5 5 5 C4.29875 4.67 3.5975 4.34 2.875 4 C-0.34160154 2.88118207 -2.61830655 2.63242462 -6 3 C-8.87429688 5.19593484 -9.52955009 7.19530431 -10.1875 10.6875 C-10.34605469 11.49574219 -10.50460937 12.30398438 -10.66796875 13.13671875 C-10.77753906 13.75160156 -10.88710938 14.36648438 -11 15 C-11.33 15 -11.66 15 -12 15 C-12.6271777 7.00348432 -12.6271777 7.00348432 -10.125 3 C-6.7693244 -0.15828291 -4.58013378 -0.53883927 0 0 Z " fill="#E8C506" transform="translate(1025,824)"/>
<path d="M0 0 C1.25 6.625 1.25 6.625 -1 10 C-1.66 10 -2.32 10 -3 10 C-3.33 10.66 -3.66 11.32 -4 12 C-4 11.34 -4 10.68 -4 10 C-6.64 10 -9.28 10 -12 10 C-12 9.67 -12 9.34 -12 9 C-11.36191406 8.93941406 -10.72382812 8.87882813 -10.06640625 8.81640625 C-9.24011719 8.73261719 -8.41382813 8.64882813 -7.5625 8.5625 C-6.73878906 8.48128906 -5.91507813 8.40007813 -5.06640625 8.31640625 C-3.01337975 8.21069185 -3.01337975 8.21069185 -2 7 C-1.83333333 4.5 -1.83333333 4.5 -2 2 C-3.58272601 0.41727399 -5.38034003 0.65264253 -7.5625 0.4375 C-8.38878906 0.35371094 -9.21507812 0.26992188 -10.06640625 0.18359375 C-10.70449219 0.12300781 -11.34257813 0.06242188 -12 0 C-12 -0.33 -12 -0.66 -12 -1 C-7.28400182 -1.92470553 -4.32734391 -2.22923777 0 0 Z " fill="#E0BF08" transform="translate(940,826)"/>
<path d="M0 0 C1.99097846 2.98646769 2.94124926 5.59687262 4 9 C1.36 9 -1.28 9 -4 9 C-2.68 6.03 -1.36 3.06 0 0 Z " fill="#5B5946" transform="translate(703,827)"/>
<path d="M0 0 C2 1 2 1 2.6328125 2.84765625 C2.79523438 3.57855469 2.95765625 4.30945313 3.125 5.0625 C3.29257812 5.79597656 3.46015625 6.52945313 3.6328125 7.28515625 C3.75398438 7.85105469 3.87515625 8.41695312 4 9 C1.69 9 -0.62 9 -3 9 C-2.01 6.03 -1.02 3.06 0 0 Z " fill="#595847" transform="translate(504,827)"/>
<path d="M0 0 C0.66 0 1.32 0 2 0 C3.25664978 2.90600261 4 4.79604584 4 8 C1.69 8 -0.62 8 -3 8 C-1.125 2.25 -1.125 2.25 0 0 Z " fill="#585748" transform="translate(210,828)"/>
<path d="M0 0 C3.32532111 2.69192661 4.52454943 6.06546515 6 10 C6 10.99 6 11.98 6 13 C5.34 13 4.68 13 4 13 C3.67 11.865625 3.34 10.73125 3 9.5625 C2.27812632 7.59506575 2.27812632 7.59506575 1 6 C-1.79200866 5.030782 -3.99397579 5.04927909 -7 5 C-7 4.67 -7 4.34 -7 4 C-4.36 4 -1.72 4 1 4 C0.67 2.68 0.34 1.36 0 0 Z " fill="#DDBC09" transform="translate(706,832)"/>
<path d="M0 0 C0.66 0 1.32 0 2 0 C2 6.93 2 13.86 2 21 C1.67 21 1.34 21 1 21 C1 15.39 1 9.78 1 4 C0.01 3.67 -0.98 3.34 -2 3 C-1.34 2.01 -0.68 1.02 0 0 Z " fill="#FBD500" transform="translate(421,824)"/>
<path d="M0 0 C0.99 0.33 1.98 0.66 3 1 C3.33 1.99 3.66 2.98 4 4 C3.01 4 2.02 4 1 4 C1 9.61 1 15.22 1 21 C0.67 21 0.34 21 0 21 C0 14.07 0 7.14 0 0 Z " fill="#FBD400" transform="translate(403,824)"/>
<path d="M0 0 C2.31 0 4.62 0 7 0 C7 3.63 7 7.26 7 11 C6.67 11 6.34 11 6 11 C5.67 8.03 5.34 5.06 5 2 C3.35 2 1.7 2 0 2 C0 1.34 0 0.68 0 0 Z " fill="#CBAE0E" transform="translate(1024,834)"/>
<path d="M0 0 C0.875 2 0.875 2 1 4 C0.34 4.66 -0.32 5.32 -1 6 C-1.66 4.35 -2.32 2.7 -3 1 C-5.64 0.67 -8.28 0.34 -11 0 C-11 -0.33 -11 -0.66 -11 -1 C-3.11538462 -2.51627219 -3.11538462 -2.51627219 0 0 Z " fill="#DDBC09" transform="translate(185,826)"/>
<path d="M0 0 C0.66 0 1.32 0 2 0 C2.99 2.97 3.98 5.94 5 9 C4.01 9.495 4.01 9.495 3 10 C2.34 8.02 1.68 6.04 1 4 C0.34 4 -0.32 4 -1 4 C-0.67 2.68 -0.34 1.36 0 0 Z " fill="#E0BF08" transform="translate(504,824)"/>
<path d="M0 0 C1.32 0 2.64 0 4 0 C4 1.65 4 3.3 4 5 C2.68 5 1.36 5 0 5 C0 3.35 0 1.7 0 0 Z " fill="#71692D" transform="translate(1046,841)"/>
<path d="M0 0 C1.32 0 2.64 0 4 0 C4 1.65 4 3.3 4 5 C2.68 5 1.36 5 0 5 C0 3.35 0 1.7 0 0 Z " fill="#71682D" transform="translate(588,841)"/>
<path d="M0 0 C0.99 0 1.98 0 3 0 C3 1.98 3 3.96 3 6 C2.01 6.495 2.01 6.495 1 7 C0.67 4.69 0.34 2.38 0 0 Z " fill="#C7AB0F" transform="translate(366,832)"/>
</svg>
